<?xml version="1.0" encoding="UTF-8"?>
<svg viewBox="0 0 1024 1024" xmlns="http://www.w3.org/2000/svg">
  <path d="M548.266667 861.866667c-98.133333-34.133333-174.933333-85.333333-228.266667-157.866667-53.333333-72.533333-78.933333-151.466667-78.933333-236.8 0-83.2 29.866667-153.6 89.6-213.333333 59.733333-59.733333 132.266667-89.6 213.333333-89.6 83.2 0 153.6 29.866667 213.333333 89.6 59.733333 59.733333 89.6 132.266667 89.6 213.333333 0 83.2-29.866667 153.6-87.466666 213.333333-59.733333 59.733333-130.133333 89.6-213.333334 89.6v91.733334z" fill="#DB2672"/>
  <path d="M437.333333 364.8c-10.666667 0-19.2-8.533333-21.333333-19.2-2.133333-12.8 6.4-25.6 17.066667-27.733333h6.4c10.666667 0 19.2 8.533333 21.333333 19.2 2.133333 12.8-6.4 25.6-17.066667 27.733333h-6.4M556.8 563.2c-29.866667-8.533333-57.6-23.466667-85.333333-46.933333-12.8-10.666667-23.466667-25.6-34.133334-40.533334-4.266667-4.266667-6.4-10.666667-10.666666-14.933333-2.133333-4.266667-4.266667-8.533333-4.266667-12.8 0-4.266667 4.266667-8.533333 8.533333-10.666667 4.266667-2.133333 6.4-2.133333 10.666667-2.133333s6.4 4.266667 10.666667 8.533333c0 2.133333 2.133333 4.266667 2.133333 4.266667 25.6 42.666667 59.733333 68.266667 102.4 81.066667 17.066667 4.266667 34.133333 6.4 53.333333 6.4 49.066667-2.133333 96-25.6 128-68.266667s46.933333-96 36.266667-147.2c-10.666667-55.466667-46.933333-106.666667-98.133333-130.133333 42.666667 14.933333 76.8 38.4 106.666666 68.266666l6.4 8.533334c12.8 29.866667 19.2 57.6 17.066667 85.333333-2.133333 89.6-44.8 153.6-121.6 192-42.666667 25.6-85.333333 29.866667-128 19.2M439.466667 725.333333c-4.266667 0-8.533333-2.133333-12.8-6.4-2.133333-2.133333-4.266667-6.4-8.533334-8.533333-44.8-55.466667-68.266667-117.333333-68.266666-185.6 0-10.666667 0-23.466667 2.133333-36.266667v-2.133333-8.533333c4.266667-27.733333 12.8-57.6 25.6-85.333334 2.133333-2.133333 4.266667-10.666667 12.8-10.666666 2.133333 0 4.266667 0 6.4 2.133333 8.533333 4.266667 12.8 10.666667 8.533333 21.333333v4.266667c-4.266667 10.666667-8.533333 21.333333-12.8 34.133333-4.266667 12.8-6.4 25.6-8.533333 40.533334-10.666667 78.933333 10.666667 151.466667 64 217.6l2.133333 2.133333c6.4 8.533333 6.4 14.933333-2.133333 21.333333-2.133333-2.133333-6.4 0-8.533333 0" fill="#FFFFFF"/>
</svg>
